<svg xmlns="http://www.w3.org/2000/svg" width="100" height="100" fill="none"><path fill="#FF4343" d="M67.108 63.2H49.65a2.083 2.083 0 0 1 0-4.167h17.458a2.083 2.083 0 0 1 0 4.167M78.858 61.908a1.6 1.6 0 0 1-.75 0 2.04 2.04 0 0 1-1.208-2.666l9.917-26.5a2.083 2.083 0 0 1 2.666-1.209 2.167 2.167 0 0 1 1.25 2.709l-9.916 26.375a2.17 2.17 0 0 1-1.959 1.291M36.317 62.7a2.04 2.04 0 0 1-1.959-1.417l-13.083-39.75h-12.5a2.083 2.083 0 0 1-2.083-2.083 2.125 2.125 0 0 1 2.083-2.083h14a2.125 2.125 0 0 1 1.958 1.416L38.442 59.95a2.04 2.04 0 0 1-1.292 2.625c-.265.104-.55.147-.833.125"/><path fill="#FF4343" d="M42.733 81.45a12.5 12.5 0 1 1 0-24.998 12.5 12.5 0 0 1 0 24.998m0-20.833a8.334 8.334 0 1 0 0 16.668 8.334 8.334 0 0 0 0-16.668M74.025 81.45a12.5 12.5 0 1 1 0-25 12.5 12.5 0 0 1 0 25m0-20.833a8.334 8.334 0 1 0 0 16.668 8.334 8.334 0 0 0 0-16.668"/></svg>