<svg xmlns="http://www.w3.org/2000/svg" width="100" height="100" fill="none"><path fill="#FF4343" d="M29.492 87.408a7.37 7.37 0 0 1-4.167-1.416 7.29 7.29 0 0 1-2.625-8.334l5.25-16.166a3.17 3.17 0 0 0-1.167-3.542l-13.75-10A7.333 7.333 0 0 1 17.2 34.7h17a3.17 3.17 0 0 0 3-1.958l5.25-16.209a7.17 7.17 0 0 1 6.958-5.125 7.21 7.21 0 0 1 6.959 5.042l5.25 16.292a3.21 3.21 0 0 0 3 2.166h17.041a7.333 7.333 0 0 1 4.167 13.25l-13.75 10a3.17 3.17 0 0 0-1.167 3.542L76.2 77.908a7.33 7.33 0 0 1-2.667 8.334 7.17 7.17 0 0 1-8.625 0l-13.75-10a3.21 3.21 0 0 0-3.708 0l-13.792 10a7.17 7.17 0 0 1-4.166 1.166M17.158 38.992a3.04 3.04 0 0 0-3 2.166 3.125 3.125 0 0 0 1.125 3.542l13.792 10a7.375 7.375 0 0 1 2.667 8.333l-5.25 16.042a3.08 3.08 0 0 0 1.125 3.542 3.04 3.04 0 0 0 3.708 0l13.917-10a7.25 7.25 0 0 1 8.583 0l13.667 10.125a3.04 3.04 0 0 0 3.708 0 3.084 3.084 0 0 0 1.125-3.542l-5.25-16.167a7.37 7.37 0 0 1 2.667-8.333l13.75-10a3.167 3.167 0 0 0-1.834-5.708H64.617a7.33 7.33 0 0 1-6.875-5.042l-5.334-16.208a3.04 3.04 0 0 0-3-2.167 3.04 3.04 0 0 0-3 2.167L41.075 33.95a7.33 7.33 0 0 1-6.875 5.042z"/></svg>