<svg xmlns="http://www.w3.org/2000/svg" width="100" height="102" fill="none"><path fill="#FF4343" d="M49.3 90.228c-10.498 0-20.567-4.229-27.99-11.755S9.716 60.739 9.716 50.094c0-10.643 4.17-20.851 11.594-28.378C28.733 14.19 38.802 9.961 49.3 9.961c.552 0 1.082.223 1.473.62.39.395.61.933.61 1.493s-.22 1.097-.61 1.493a2.07 2.07 0 0 1-1.473.619 35 35 0 0 0-16.77 4.166 35.6 35.6 0 0 0-12.833 11.71 36.2 36.2 0 0 0-5.85 16.47 36.36 36.36 0 0 0 2.527 17.316 35.9 35.9 0 0 0 10.301 14.048 35.2 35.2 0 0 0 15.628 7.441 34.95 34.95 0 0 0 17.24-.934A35.33 35.33 0 0 0 74.3 75.315a2.09 2.09 0 0 1 1.496-.747 2.06 2.06 0 0 1 1.558.606 2.12 2.12 0 0 1 .62 1.57 2.14 2.14 0 0 1-.716 1.528 39.2 39.2 0 0 1-12.792 8.831A38.7 38.7 0 0 1 49.3 90.228"/><path fill="#FF4343" d="M48.05 63.613a1.93 1.93 0 0 1-1.459-.591L29.925 46.124a2.12 2.12 0 0 1-.617-1.5 2.14 2.14 0 0 1 .617-1.5 2.1 2.1 0 0 1 1.479-.608 2.1 2.1 0 0 1 1.479.608l15.167 15.42 33.958-34.43a2.08 2.08 0 0 1 1.48-.622c.554 0 1.086.224 1.478.622.393.397.613.937.613 1.5s-.22 1.101-.613 1.5L49.55 63.021a2.08 2.08 0 0 1-1.5.591"/></svg>